<svg width="25" height="25" viewBox="0 0 25 25" fill="none" xmlns="http://www.w3.org/2000/svg">
<path d="M12.4394 7.80283C11.213 7.80283 10.0369 8.29 9.16972 9.15716C8.30255 10.0243 7.81538 11.2005 7.81538 12.4268C7.81538 13.6532 8.30255 14.8293 9.16972 15.6965C10.0369 16.5637 11.213 17.0508 12.4394 17.0508C13.6657 17.0508 14.8419 16.5637 15.709 15.6965C16.5762 14.8293 17.0634 13.6532 17.0634 12.4268C17.0634 11.2005 16.5762 10.0243 15.709 9.15716C14.8419 8.29 13.6657 7.80283 12.4394 7.80283V7.80283ZM12.4394 15.4298C11.6427 15.4298 10.8786 15.1133 10.3152 14.55C9.75188 13.9866 9.43538 13.2225 9.43538 12.4258C9.43538 11.6291 9.75188 10.865 10.3152 10.3017C10.8786 9.73832 11.6427 9.42183 12.4394 9.42183C13.2361 9.42183 14.0002 9.73832 14.5635 10.3017C15.1269 10.865 15.4434 11.6291 15.4434 12.4258C15.4434 13.2225 15.1269 13.9866 14.5635 14.55C14.0002 15.1133 13.2361 15.4298 12.4394 15.4298V15.4298Z" fill="black"/>
<path d="M17.2464 8.71082C17.8417 8.71082 18.3244 8.22819 18.3244 7.63282C18.3244 7.03746 17.8417 6.55482 17.2464 6.55482C16.651 6.55482 16.1684 7.03746 16.1684 7.63282C16.1684 8.22819 16.651 8.71082 17.2464 8.71082Z" fill="black"/>
<path d="M20.9734 6.53683C20.7419 5.93901 20.3881 5.39611 19.9347 4.94289C19.4813 4.48967 18.9383 4.1361 18.3404 3.90483C17.6407 3.64219 16.9016 3.50017 16.1544 3.48483C15.1914 3.44283 14.8864 3.43083 12.4444 3.43083C10.0024 3.43083 9.68938 3.43083 8.73438 3.48483C7.98777 3.49939 7.24914 3.64143 6.55038 3.90483C5.95232 4.13583 5.40915 4.4893 4.95572 4.94256C4.50229 5.39582 4.14861 5.93886 3.91738 6.53683C3.65469 7.23644 3.513 7.97567 3.49838 8.72283C3.45538 9.68483 3.44238 9.98983 3.44238 12.4328C3.44238 14.8748 3.44238 15.1858 3.49838 16.1428C3.51338 16.8908 3.65438 17.6288 3.91738 18.3298C4.14926 18.9276 4.50328 19.4704 4.95682 19.9236C5.41036 20.3768 5.95345 20.7304 6.55138 20.9618C7.24882 21.235 7.98775 21.3872 8.73638 21.4118C9.69938 21.4538 10.0044 21.4668 12.4464 21.4668C14.8884 21.4668 15.2014 21.4668 16.1564 21.4118C16.9035 21.3966 17.6426 21.255 18.3424 20.9928C18.9401 20.761 19.483 20.4072 19.9364 19.9538C20.3897 19.5005 20.7436 18.9576 20.9754 18.3598C21.2384 17.6598 21.3794 16.9218 21.3944 16.1738C21.4374 15.2118 21.4504 14.9068 21.4504 12.4638C21.4504 10.0208 21.4504 9.71083 21.3944 8.75383C21.3827 7.9961 21.2403 7.24608 20.9734 6.53683V6.53683ZM19.7554 16.0688C19.7489 16.6451 19.6437 17.2161 19.4444 17.7568C19.2942 18.1457 19.0643 18.4988 18.7695 18.7935C18.4746 19.0882 18.1213 19.3179 17.7324 19.4678C17.1976 19.6663 16.6327 19.7715 16.0624 19.7788C15.1124 19.8228 14.8444 19.8338 12.4084 19.8338C9.97038 19.8338 9.72138 19.8338 8.75338 19.7788C8.18331 19.7719 7.61871 19.6666 7.08438 19.4678C6.69407 19.3188 6.33938 19.0895 6.04327 18.7948C5.74716 18.5001 5.51622 18.1464 5.36538 17.7568C5.16883 17.2219 5.06369 16.6577 5.05438 16.0878C5.01138 15.1378 5.00138 14.8698 5.00138 12.4338C5.00138 9.99683 5.00138 9.74783 5.05438 8.77883C5.06085 8.20285 5.16604 7.63225 5.36538 7.09183C5.67038 6.30283 6.29538 5.68183 7.08438 5.37983C7.61897 5.18197 8.18341 5.0768 8.75338 5.06883C9.70438 5.02583 9.97138 5.01383 12.4084 5.01383C14.8454 5.01383 15.0954 5.01383 16.0624 5.06883C16.6328 5.07569 17.1977 5.1809 17.7324 5.37983C18.1213 5.5301 18.4745 5.76003 18.7694 6.05486C19.0642 6.34969 19.2941 6.7029 19.4444 7.09183C19.6409 7.62678 19.7461 8.19099 19.7554 8.76083C19.7984 9.71183 19.8094 9.97883 19.8094 12.4158C19.8094 14.8518 19.8094 15.1138 19.7664 16.0698H19.7554V16.0688Z" fill="black"/>
</svg>
